HIERARCHY
ROOT Pelvis
{
	OFFSET 0.000000 0.000000 0.000000
	CHANNELS 6 Xposition Yposition Zposition Xrotation Yrotation Zrotation
	JOINT LeftUpLeg_virtual
	{
		OFFSET 0.000000 0.000000 0.000000
		CHANNELS 3 Xrotation Yrotation Zrotation
		JOINT LeftUpLeg
		{
			OFFSET 18.735201 -5.666702 -4.541200
			CHANNELS 3 Xrotation Yrotation Zrotation
			JOINT LeftLeg
			{
				OFFSET -0.021200 -31.938179 0.493100
				CHANNELS 3 Xrotation Yrotation Zrotation
				JOINT LeftFoot
				{
					OFFSET 0.021200 -31.938179 -4.336299
					CHANNELS 3 Xrotation Yrotation Zrotation
					JOINT LeftToeBase
					{
						OFFSET 0.943001 -26.722000 15.023500
						CHANNELS 3 Xrotation Yrotation Zrotation
						End Site
						{
							OFFSET 0 0 0
						}
					}
				}
			}
		}
	}
	JOINT RightUpLeg_virtual
	{
		OFFSET 0.000000 0.000000 0.000000
		CHANNELS 3 Xrotation Yrotation Zrotation
		JOINT RightUpLeg
		{
			OFFSET -18.735201 -5.666702 -4.541200
			CHANNELS 3 Xrotation Yrotation Zrotation
			JOINT RightLeg
			{
				OFFSET 0.018946 -31.938133 0.493100
				CHANNELS 3 Xrotation Yrotation Zrotation
				JOINT RightFoot
				{
					OFFSET -0.018946 -31.938126 -4.336299
					CHANNELS 3 Xrotation Yrotation Zrotation
					JOINT RightToeBase
					{
						OFFSET -0.943001 -26.722004 15.023500
						CHANNELS 3 Xrotation Yrotation Zrotation
						End Site
						{
							OFFSET 0 0 0
						}
					}
				}
			}
		}
	}
	JOINT Hips_virtual
	{
		OFFSET 0.000000 0.000000 0.000000
		CHANNELS 3 Xrotation Yrotation Zrotation
		JOINT Hips
		{
			OFFSET -0.000000 -0.000000 -0.000000
			CHANNELS 3 Xrotation Yrotation Zrotation
			JOINT Spine
			{
				OFFSET 0.000000 10.199997 -0.299500
				CHANNELS 3 Xrotation Yrotation Zrotation
				JOINT Spine1
				{
					OFFSET 0.000000 11.900002 -1.516600
					CHANNELS 3 Xrotation Yrotation Zrotation
					JOINT Spine2
					{
						OFFSET 0.000000 13.600006 -2.842500
						CHANNELS 3 Xrotation Yrotation Zrotation
						JOINT Neck_virtual
						{
							OFFSET 0.000000 0.000000 0.000000
							CHANNELS 3 Xrotation Yrotation Zrotation
							JOINT Neck
							{
								OFFSET 0.000000 9.624100 -2.890100
								CHANNELS 3 Xrotation Yrotation Zrotation
								JOINT Head
								{
									OFFSET 0.000000 14.068802 -1.351900
									CHANNELS 3 Xrotation Yrotation Zrotation
									End Site
									{
										OFFSET 0 0 0
									}
								}
							}
						}
						JOINT LeftShoulder_virtual
						{
							OFFSET 0.000000 0.000000 0.000000
							CHANNELS 3 Xrotation Yrotation Zrotation
							JOINT LeftShoulder
							{
								OFFSET 15.263000 10.923401 -0.547700
								CHANNELS 3 Xrotation Yrotation Zrotation
								JOINT LeftArm
								{
									OFFSET 25.438599 -2.830597 -13.032500
									CHANNELS 3 Xrotation Yrotation Zrotation
									JOINT LeftForeArm
									{
										OFFSET 29.960503 0.000000 0.000000
										CHANNELS 3 Xrotation Yrotation Zrotation
										JOINT LeftHand
										{
											OFFSET 27.849251 0.000000 0.000000
											CHANNELS 3 Xrotation Yrotation Zrotation
											End Site
											{
												OFFSET 0 0 0
											}
										}
									}
								}
							}
						}
						JOINT RightShoulder_virtual
						{
							OFFSET 0.000000 0.000000 0.000000
							CHANNELS 3 Xrotation Yrotation Zrotation
							JOINT RightShoulder
							{
								OFFSET -15.263000 10.923401 -0.547700
								CHANNELS 3 Xrotation Yrotation Zrotation
								JOINT RightArm
								{
									OFFSET -25.438599 -2.830597 -13.032500
									CHANNELS 3 Xrotation Yrotation Zrotation
									JOINT RightForeArm
									{
										OFFSET -29.960503 0.000000 0.000000
										CHANNELS 3 Xrotation Yrotation Zrotation
										JOINT RightHand
										{
											OFFSET -27.849251 0.000000 0.000000
											CHANNELS 3 Xrotation Yrotation Zrotation
											End Site
											{
												OFFSET 0 0 0
											}
										}
									}
								}
							}
						}
					}
				}
			}
		}
	}
}
MOTION
Frames: 13
Frame Time: 0.03333333
-6.240180 84.209869 11.799103 0.000000 0.000000 0.000000 4.245472 -14.025651 1.605031 -42.521503 6.701653 20.396415 41.360248 9.157994 -3.863159 -13.600338 10.197115 -5.871909 0.000000 0.000000 0.000000 12.808823 -49.597842 -0.440031 -19.443677 -19.100438 -25.162420 39.335350 4.566517 2.628939 -14.885530 -0.924509 17.267914 0.000000 0.000000 0.000000 -7.023309 -53.799529 -1.763320 22.253012 2.437732 -9.315575 2.953138 -14.706958 7.165470 1.527954 -7.430408 3.924080 0.000000 0.000000 0.000000 -9.062994 -4.585477 5.537374 -2.914341 3.590018 2.175435 0.000000 0.000000 0.000000 -3.572392 -10.473490 3.932647 -4.380906 -22.458295 22.634566 -30.586571 -19.956409 -12.583229 8.179233 -21.174954 -4.350325 0.000000 0.000000 0.000000 -9.609941 -10.156606 5.711731 -5.494145 -19.262228 5.954509 -12.817677 -23.550260 -1.581833 -6.393253 73.402575 1.272394 0.000000 0.000000 0.000000 
-6.766238 84.429665 12.189140 0.000000 0.000000 0.000000 5.153407 -13.183518 1.849966 -40.855046 6.997779 20.372940 39.560886 9.127004 -3.240187 -15.036231 9.872357 -5.179716 0.000000 0.000000 0.000000 12.819879 -48.885351 -0.421479 -18.955204 -19.022072 -24.815332 38.681632 2.467859 2.481335 -14.935930 -2.683191 15.595168 0.000000 0.000000 0.000000 -6.593254 -52.453510 -1.724135 22.752212 3.693613 -10.250780 1.906116 -14.908759 7.069569 1.048299 -7.459185 3.918348 0.000000 0.000000 0.000000 -9.104737 -5.011599 5.606014 -2.883957 3.360687 2.300750 0.000000 0.000000 0.000000 -4.213313 -10.452074 4.242955 -4.433569 -22.063225 25.103389 -32.592088 -22.471765 -10.303468 7.662436 -23.362391 -3.376345 0.000000 0.000000 0.000000 -10.444543 -10.341395 5.401770 -6.245793 -19.658838 4.207236 -11.932726 -23.720670 -3.185415 -5.794651 74.038315 0.973563 0.000000 0.000000 0.000000 
-7.329252 84.624573 12.783389 0.000000 0.000000 0.000000 5.742333 -11.727238 2.291618 -39.361369 7.249635 20.580962 37.508476 8.378554 -2.850644 -16.449563 9.109903 -5.261063 0.000000 0.000000 0.000000 12.845819 -48.816602 -0.076492 -18.694769 -19.135979 -24.317357 38.475425 -0.003321 2.491578 -14.616805 -4.859371 13.948752 0.000000 0.000000 0.000000 -6.414108 -50.956517 -1.836131 22.634706 4.885326 -10.982510 0.808014 -15.079883 6.903806 0.568916 -7.466325 3.860787 0.000000 0.000000 0.000000 -8.955552 -5.347842 5.637332 -2.775429 3.158250 2.426265 0.000000 0.000000 0.000000 -4.971632 -10.337672 4.524423 -4.615802 -21.408017 27.678104 -35.030958 -24.926188 -8.143765 6.946027 -25.646425 -2.388589 0.000000 0.000000 0.000000 -11.269162 -10.514707 5.016284 -7.035826 -20.071978 2.173577 -11.097650 -24.039974 -4.968182 -5.200898 74.228433 0.713099 0.000000 0.000000 0.000000 
-8.007759 84.721146 13.416774 0.000000 0.000000 0.000000 6.263398 -9.946139 2.712514 -37.759027 7.562570 20.775578 35.444351 6.980045 -2.819104 -17.705131 8.015454 -6.172874 0.000000 0.000000 0.000000 12.667467 -48.446252 0.414717 -18.583326 -19.161956 -23.487900 38.685047 -2.597369 2.507713 -13.883358 -7.168126 12.240899 0.000000 0.000000 0.000000 -6.104205 -49.477197 -1.833820 22.295092 5.872328 -11.789481 -0.376125 -15.192212 6.528114 0.088364 -7.445713 3.678798 0.000000 0.000000 0.000000 -8.758245 -5.559687 5.514295 -2.651759 2.998842 2.496351 0.000000 0.000000 0.000000 -5.804237 -10.113040 4.684443 -4.971186 -20.495081 29.967359 -37.625907 -27.397072 -6.533746 6.214288 -28.309857 -1.498606 0.000000 0.000000 0.000000 -12.095121 -10.635647 4.549882 -7.875247 -20.381863 -0.167375 -10.404912 -24.402903 -6.813973 -4.916231 74.036109 0.803188 0.000000 0.000000 0.000000 
-8.437307 84.759277 14.374756 0.000000 0.000000 0.000000 6.659224 -7.995944 3.108419 -36.391262 7.906134 21.046301 33.608451 5.434133 -3.050598 -18.779583 6.919991 -7.461018 0.000000 0.000000 0.000000 11.912725 -47.480992 0.747603 -18.985423 -18.906860 -22.464695 39.840005 -5.261672 2.262700 -12.416294 -9.434195 10.027783 0.000000 0.000000 0.000000 -5.700009 -47.943622 -1.712754 21.953208 6.498203 -12.142839 -1.484247 -15.225386 6.100757 -0.313397 -7.386579 3.443928 0.000000 0.000000 0.000000 -8.712977 -5.712182 5.268946 -2.609195 2.843951 2.534866 0.000000 0.000000 0.000000 -6.750014 -9.803314 4.768889 -5.471939 -19.459953 32.153218 -40.339278 -29.711535 -5.317467 5.400533 -31.028894 -0.702820 0.000000 0.000000 0.000000 -12.897656 -10.706036 4.003603 -8.772792 -20.518247 -2.900328 -9.790197 -24.364275 -8.728319 -4.832019 73.739911 1.148364 0.000000 0.000000 0.000000 
-9.039000 84.763557 15.513408 0.000000 0.000000 0.000000 7.403790 -5.963002 3.347226 -34.770000 8.448125 21.247380 32.159744 4.024157 -3.402990 -19.673001 5.973587 -8.779803 0.000000 0.000000 0.000000 11.656394 -46.225761 1.481607 -19.175770 -18.648824 -21.255540 42.842689 -7.714186 1.915103 -9.662918 -11.450160 7.617665 0.000000 0.000000 0.000000 -5.098041 -46.423795 -1.388523 21.972701 6.932588 -12.092810 -2.552204 -15.231916 5.608543 -0.641916 -7.315283 3.156268 0.000000 0.000000 0.000000 -8.821026 -5.677465 4.878103 -2.638796 2.773339 2.526632 0.000000 0.000000 0.000000 -7.805206 -9.411305 4.822789 -6.103771 -18.322708 34.407064 -43.364014 -32.459671 -4.275882 4.437737 -34.376376 0.227166 0.000000 0.000000 0.000000 -13.702225 -10.704311 3.360968 -9.710858 -20.385466 -6.022737 -9.601407 -23.808021 -10.788767 -5.253121 73.393955 1.973088 0.000000 0.000000 0.000000 
-9.685654 84.361938 16.481052 0.000000 0.000000 0.000000 8.156587 -3.841138 3.547967 -33.308623 9.045418 21.519086 31.267800 2.511479 -3.805308 -20.145650 4.947687 -10.193023 0.000000 0.000000 0.000000 10.676669 -44.598752 0.987562 -20.034538 -17.948458 -21.132184 47.100916 -9.879778 1.234001 -6.154816 -13.043088 4.605526 0.000000 0.000000 0.000000 -4.414866 -44.663174 -0.966208 22.121588 7.423362 -11.498578 -3.677071 -15.196085 4.979885 -0.973975 -7.230524 2.782444 0.000000 0.000000 0.000000 -9.044450 -5.531952 4.365737 -2.728803 2.727706 2.484010 0.000000 0.000000 0.000000 -8.798024 -8.888573 4.867422 -6.763892 -16.973462 36.756011 -45.909431 -35.325960 -2.912780 3.660102 -37.728722 1.407140 0.000000 0.000000 0.000000 -14.536999 -10.621079 2.639973 -10.718638 -20.038429 -9.420846 -9.826471 -22.402512 -12.509555 -6.817055 73.676561 3.985871 0.000000 0.000000 0.000000 
-10.142487 83.304062 17.689754 0.000000 0.000000 0.000000 8.992414 -1.917259 3.795068 -31.887527 9.619451 21.889634 31.386990 0.973264 -4.164481 -19.905564 3.834927 -11.564195 0.000000 0.000000 0.000000 9.025069 -42.049325 -1.514259 -21.176149 -16.535994 -22.831601 52.691686 -11.571809 0.028282 -1.741499 -13.932783 0.775458 0.000000 0.000000 0.000000 -3.726768 -42.337720 -0.547204 22.269839 8.130445 -10.533318 -5.003823 -15.086604 4.202204 -1.388341 -7.120303 2.322174 0.000000 0.000000 0.000000 -9.432676 -5.359941 3.812948 -2.916163 2.642618 2.449791 0.000000 0.000000 0.000000 -9.569812 -8.193872 4.966321 -7.373001 -15.312736 39.359829 -47.092385 -37.610099 -0.346120 3.473192 -39.914891 3.017109 0.000000 0.000000 0.000000 -15.291457 -10.449462 1.849720 -11.708419 -19.490452 -13.151540 -10.251699 -20.370068 -14.531533 -8.579805 73.855327 6.114345 0.000000 0.000000 0.000000 
-10.567633 82.057228 19.199947 0.000000 0.000000 0.000000 9.497660 0.012287 4.088035 -30.977114 10.098378 22.381939 31.916241 -0.494204 -4.478859 -19.435747 2.730539 -12.849784 0.000000 0.000000 0.000000 7.538835 -38.015542 -3.395844 -22.306510 -14.788828 -23.759566 59.261433 -11.462957 -0.678278 3.969688 -13.360549 -0.934372 0.000000 0.000000 0.000000 -2.974906 -39.620835 -0.119527 22.229196 9.068178 -9.651891 -6.427981 -14.839930 3.186569 -1.822353 -6.956662 1.714065 0.000000 0.000000 0.000000 -9.902718 -5.137098 3.127356 -3.159142 2.544510 2.364185 0.000000 0.000000 0.000000 -10.243243 -7.402092 4.956384 -8.086442 -13.537332 41.530125 -47.783703 -38.831620 2.605401 3.369332 -40.725525 4.593340 0.000000 0.000000 0.000000 -15.898391 -10.131203 1.031503 -12.506552 -18.405198 -17.041998 -11.338088 -17.936188 -16.763125 -10.983473 73.814394 8.725651 0.000000 0.000000 0.000000 
-11.068405 80.706139 20.679802 0.000000 0.000000 0.000000 9.866465 1.803113 4.324821 -30.372885 10.535899 22.861584 32.561090 -1.957302 -4.708989 -18.983778 1.577306 -14.024484 0.000000 0.000000 0.000000 6.146541 -32.824516 -4.734206 -23.582432 -12.785714 -24.098425 65.246454 -9.591182 -1.142503 9.783169 -11.100703 -0.526034 0.000000 0.000000 0.000000 -2.540630 -36.477950 0.058186 21.811017 9.896244 -8.670815 -7.935607 -14.472901 2.015508 -2.280901 -6.753734 1.004941 0.000000 0.000000 0.000000 -10.432197 -4.887944 2.309698 -3.437285 2.401099 2.225174 0.000000 0.000000 0.000000 -10.939806 -6.615632 4.737969 -8.823269 -12.177254 42.962307 -49.032012 -39.405547 4.262006 3.014700 -41.515625 5.613808 0.000000 0.000000 0.000000 -16.361674 -9.753800 0.078095 -13.176496 -17.190013 -21.428875 -13.332507 -15.458822 -19.613802 -13.423638 73.061263 11.053307 0.000000 0.000000 0.000000 
-11.432465 79.402000 21.834812 0.000000 0.000000 0.000000 10.157587 3.087120 4.415194 -30.006571 10.886661 23.163554 33.483206 -3.637075 -4.793286 -18.499649 0.166749 -15.127568 0.000000 0.000000 0.000000 4.530711 -26.865007 -4.834115 -25.669922 -10.710129 -23.185139 71.570697 -5.663330 -0.842324 16.107553 -6.719389 3.400605 0.000000 0.000000 0.000000 -2.204776 -32.822932 0.110738 21.573217 11.183533 -7.936764 -9.284332 -13.974876 0.825438 -2.649407 -6.503695 0.267100 0.000000 0.000000 0.000000 -10.872674 -4.579834 1.273108 -3.681941 2.252562 1.964293 0.000000 0.000000 0.000000 -11.524829 -5.980904 4.211105 -9.306683 -11.706462 43.163479 -51.136103 -39.536591 2.991353 2.221092 -42.929750 5.377618 0.000000 0.000000 0.000000 -16.762285 -9.289886 -1.006213 -13.778896 -15.592915 -26.329665 -16.616554 -12.614288 -22.941939 -15.905525 71.491180 12.963389 0.000000 0.000000 0.000000 
-11.669855 78.292786 22.674162 0.000000 0.000000 0.000000 9.898565 5.115120 4.798492 -30.362015 11.161228 23.912209 34.665799 -5.517958 -4.770789 -17.994311 -1.451102 -16.212928 0.000000 0.000000 0.000000 2.851956 -22.921582 -4.975503 -28.047764 -9.173432 -22.702664 77.905875 -1.950092 -0.350052 21.443937 -2.315335 7.833315 0.000000 0.000000 0.000000 -1.858942 -28.919683 0.118339 20.980478 12.670811 -7.373637 -10.478171 -13.293560 -0.366045 -2.943447 -6.191943 -0.494788 0.000000 0.000000 0.000000 -11.346295 -4.343327 0.202064 -3.955960 2.013169 1.676070 0.000000 0.000000 0.000000 -12.167401 -5.448816 3.335811 -9.753197 -12.010935 41.909587 -55.049201 -39.224311 -1.257813 0.399907 -45.420621 3.691189 0.000000 0.000000 0.000000 -17.124515 -8.721037 -2.104836 -14.255105 -13.632538 -31.268743 -21.157933 -9.505105 -26.269895 -18.656211 69.257824 14.703413 0.000000 0.000000 0.000000 
-11.662035 77.760902 23.559132 0.000000 0.000000 0.000000 9.426136 7.298290 5.654557 -30.994196 11.263657 25.185283 35.976772 -7.551540 -4.524302 -17.533674 -3.279571 -17.114251 0.000000 0.000000 0.000000 0.480733 -21.934850 -5.872761 -31.210628 -8.127570 -23.210859 82.945162 0.874877 0.159475 25.002637 1.095227 11.647335 0.000000 0.000000 0.000000 -1.598085 -24.588833 0.039275 19.936991 14.539361 -6.688677 -11.141574 -12.405226 -1.518525 -2.941087 -5.802953 -1.264715 0.000000 0.000000 0.000000 -11.673886 -4.202005 -0.795220 -4.187808 1.673379 1.400704 0.000000 0.000000 0.000000 -12.513877 -4.952635 2.300209 -9.952183 -12.755413 39.745373 -58.897766 -38.582175 -7.233356 -1.761126 -48.776587 0.885792 0.000000 0.000000 0.000000 -17.319502 -8.031197 -3.248372 -14.443987 -11.274532 -36.482943 -26.038093 -5.748782 -29.777610 -21.183120 66.923498 15.779566 0.000000 0.000000 0.000000 
